<?xml version="1.0" encoding="utf-8"?>
<!-- Generator: Adobe Illustrator 16.0.0, SVG Export Plug-In . SVG Version: 6.00 Build 0)  -->
<!DOCTYPE svg PUBLIC "-//W3C//DTD SVG 1.1//EN" "http://www.w3.org/Graphics/SVG/1.1/DTD/svg11.dtd">
<svg version="1.1" id="Layer_1" xmlns="http://www.w3.org/2000/svg" xmlns:xlink="http://www.w3.org/1999/xlink" x="0px" y="0px"
	 width="7.429px" height="11.143px" viewBox="0 0 7.429 11.143" enable-background="new 0 0 7.429 11.143" xml:space="preserve">
<path fill="none" d="M2.089,9.75c0,0.385-0.312,0.697-0.697,0.697c-0.384,0-0.696-0.312-0.696-0.697s0.312-0.696,0.696-0.696
	C1.777,9.053,2.089,9.365,2.089,9.75z M2.089,1.393c0,0.385-0.312,0.697-0.697,0.697c-0.384,0-0.696-0.312-0.696-0.697
	c0-0.384,0.312-0.696,0.696-0.696C1.777,0.696,2.089,1.008,2.089,1.393z M6.732,2.321c0,0.385-0.312,0.697-0.696,0.697
	S5.339,2.706,5.339,2.321s0.312-0.696,0.696-0.696S6.732,1.937,6.732,2.321z M7.429,2.321c0-0.769-0.624-1.393-1.393-1.393
	S4.643,1.552,4.643,2.321c0,0.515,0.283,0.965,0.697,1.204C5.325,5.042,4.556,5.361,3.207,5.789
	C2.851,5.897,2.459,6.021,2.089,6.202V2.597c0.414-0.239,0.696-0.689,0.696-1.204C2.786,0.624,2.162,0,1.393,0
	C0.624,0,0,0.624,0,1.393c0,0.515,0.283,0.965,0.696,1.204v5.949C0.283,8.785,0,9.235,0,9.75c0,0.769,0.624,1.393,1.393,1.393
	c0.769,0,1.393-0.624,1.393-1.393c0-0.515-0.283-0.965-0.696-1.204V8.357c0-0.704,0.377-0.878,1.531-1.24
	c1.233-0.392,3.09-0.972,3.112-3.591C7.146,3.286,7.429,2.836,7.429,2.321z"/>
</svg>
