<?xml version="1.0" encoding="utf-8"?>
<!-- Generator: Adobe Illustrator 16.0.0, SVG Export Plug-In . SVG Version: 6.00 Build 0)  -->
<!DOCTYPE svg PUBLIC "-//W3C//DTD SVG 1.1//EN" "http://www.w3.org/Graphics/SVG/1.1/DTD/svg11.dtd">
<svg version="1.1" id="Layer_1" xmlns="http://www.w3.org/2000/svg" xmlns:xlink="http://www.w3.org/1999/xlink" x="0px" y="0px"
	 width="11.146px" height="10.631px" viewBox="0 0 11.146 10.631" enable-background="new 0 0 11.146 10.631" xml:space="preserve">
<path fill="none" d="M11.146,4.12c0-0.201-0.214-0.281-0.375-0.308L7.409,3.323L5.901,0.275C5.841,0.147,5.728,0,5.573,0
	S5.305,0.147,5.245,0.275L3.738,3.323l0,0L0.375,3.812C0.208,3.838,0,3.919,0,4.12C0,4.24,0.087,4.354,0.167,4.441l2.438,2.371
	L2.03,10.162c-0.007,0.047-0.014,0.087-0.014,0.134c0,0.174,0.087,0.335,0.282,0.335c0.094,0,0.181-0.033,0.268-0.081l3.008-1.581
	l3.008,1.581c0.08,0.047,0.174,0.081,0.268,0.081c0.194,0,0.275-0.161,0.275-0.335c0-0.047,0-0.087-0.007-0.134L8.541,6.812
	l2.431-2.371C11.06,4.354,11.146,4.24,11.146,4.12z"/>
</svg>
