<?xml version="1.0" encoding="utf-8"?>
<!-- Generator: Adobe Illustrator 16.0.0, SVG Export Plug-In . SVG Version: 6.00 Build 0)  -->
<!DOCTYPE svg PUBLIC "-//W3C//DTD SVG 1.1//EN" "http://www.w3.org/Graphics/SVG/1.1/DTD/svg11.dtd">
<svg version="1.1" id="Layer_1" xmlns="http://www.w3.org/2000/svg" xmlns:xlink="http://www.w3.org/1999/xlink" x="0px" y="0px"
	 width="13px" height="8.357px" viewBox="0 0 13 8.357" enable-background="new 0 0 13 8.357" xml:space="preserve">
<path fill="none" d="M12.071,4.179c-1.241,1.915-3.243,3.25-5.571,3.25s-4.331-1.335-5.571-3.25c0.689-1.066,1.632-1.98,2.764-2.561
	C3.402,2.111,3.25,2.677,3.25,3.25c0,1.792,1.458,3.25,3.25,3.25c1.792,0,3.25-1.458,3.25-3.25c0-0.573-0.152-1.139-0.442-1.632
	C10.439,2.198,11.382,3.112,12.071,4.179z M6.848,1.393c0,0.189-0.16,0.348-0.348,0.348c-0.827,0-1.509,0.682-1.509,1.509
	c0,0.189-0.16,0.348-0.349,0.348c-0.188,0-0.348-0.159-0.348-0.348c0-1.211,0.994-2.205,2.206-2.205
	C6.688,1.045,6.848,1.204,6.848,1.393z M13,4.179c0-0.181-0.058-0.348-0.146-0.501C11.52,1.487,9.075,0,6.5,0
	S1.48,1.487,0.145,3.678C0.058,3.83,0,3.997,0,4.179c0,0.181,0.058,0.348,0.145,0.5C1.48,6.87,3.925,8.357,6.5,8.357
	s5.02-1.48,6.354-3.678C12.942,4.527,13,4.36,13,4.179z"/>
</svg>
